<svg data-v-603016f8="" id="vuesax_bulk_arrow-3" data-name="vuesax/bulk/arrow-3" xmlns="http://www.w3.org/2000/svg" width="39.33" height="39.33" viewBox="0 0 39.33 39.33" class="rotate-180"><g data-v-603016f8="" id="arrow-3"><g data-v-603016f8="" id="arrow-3-2" data-name="arrow-3"><path data-v-603016f8="" id="Vector" d="M0,0H39.33V39.33H0Z" fill="none" opacity="0"></path> <path data-v-603016f8="" id="Vector-2" data-name="Vector" d="M14.3,6.457,8.223.377A1.282,1.282,0,0,0,7.8.1.06.06,0,0,1,7.747.082,1.2,1.2,0,0,0,6.453.36l-6.1,6.1A1.228,1.228,0,0,0,2.094,8.194L6.109,4.179V30.727a1.229,1.229,0,0,0,2.458,0V4.2l4,4a1.227,1.227,0,0,0,1.737,0A1.236,1.236,0,0,0,14.3,6.457Z" transform="translate(3.691 3.687)" fill="#5a4bd2"></path> <path data-v-603016f8="" id="Vector-3" data-name="Vector" d="M14.3,23.762a1.237,1.237,0,0,0-1.737,0L8.55,27.777V1.229a1.229,1.229,0,0,0-2.458,0V27.761l-4-4A1.228,1.228,0,0,0,.356,25.5l6.08,6.08a1.282,1.282,0,0,0,.426.279.06.06,0,0,1,.049.016A1.2,1.2,0,0,0,8.206,31.6l6.1-6.1A1.236,1.236,0,0,0,14.3,23.762Z" transform="translate(20.98 3.687)" fill="#5a4bd2" opacity="0.4"></path></g></g></svg>