<svg xmlns="http://www.w3.org/2000/svg" width="69" height="69" viewBox="0 0 69 69">
  <g id="vuesax_bulk_messages-3" data-name="vuesax/bulk/messages-3" transform="translate(-492 -252)">
    <g id="messages-3" transform="translate(492 252)">
      <path id="Vector" d="M0,0H69V69H0Z" fill="none" opacity="0"/>
      <path id="Vector-2" data-name="Vector" d="M48.875,12.219V26.881a12.148,12.148,0,0,1-3.364,8.855A12.148,12.148,0,0,1,36.656,39.1v5.2a2.442,2.442,0,0,1-3.8,2.041L30.073,44.5a10.434,10.434,0,0,0,.374-2.9V29.9c0-5.865-3.91-9.775-9.775-9.775H1.15c-.4,0-.776.029-1.15.058V12.219C0,4.888,4.888,0,12.219,0H36.656C43.987,0,48.875,4.888,48.875,12.219Z" transform="translate(14.375 5.75)" fill="#5a4bd2" opacity="0.4"/>
      <path id="Vector-3" data-name="Vector" d="M39.071,9.775v11.7a10.434,10.434,0,0,1-.374,2.9c-1.064,4.226-4.571,6.871-9.4,6.871h-7.82L12.794,37.03a1.929,1.929,0,0,1-3.019-1.61V31.251A9.769,9.769,0,0,1,2.7,28.578a9.786,9.786,0,0,1-2.7-7.1V9.775C0,4.313,3.392.546,8.625.058,9,.029,9.372,0,9.775,0H29.3C35.161,0,39.071,3.91,39.071,9.775Z" transform="translate(5.75 25.875)" fill="#5a4bd2"/>
    </g>
  </g>
</svg>
