<svg xmlns="http://www.w3.org/2000/svg" width="28" height="28" viewBox="0 0 28 28">
  <g id="vuesax_bulk_microphone-2" data-name="vuesax/bulk/microphone-2" transform="translate(-236 -188)">
    <g id="microphone-2" transform="translate(236 188)">
      <path id="Vector" d="M17.43.012a.812.812,0,0,0-.817.817V2.672a7.49,7.49,0,1,1-14.98,0V.817A.812.812,0,0,0,.817,0,.812.812,0,0,0,0,.817V2.66a9.131,9.131,0,0,0,8.307,9.077v2.485a.817.817,0,1,0,1.633,0V11.737A9.132,9.132,0,0,0,18.247,2.66V.817A.824.824,0,0,0,17.43.012Z" transform="translate(4.877 10.628)" fill="#5a4bd2" opacity="0.4"/>
      <path id="Vector-2" data-name="Vector" d="M5.157,0A5.158,5.158,0,0,0,0,5.157V11.13a5.157,5.157,0,1,0,10.313,0V5.157A5.158,5.158,0,0,0,5.157,0ZM6.685,8.108a.673.673,0,0,1-.653.5.9.9,0,0,1-.175-.023,2.551,2.551,0,0,0-1.388,0,.676.676,0,0,1-.35-1.307,4.008,4.008,0,0,1,2.1,0A.679.679,0,0,1,6.685,8.108ZM7.3,5.845a.676.676,0,0,1-.642.443.808.808,0,0,1-.233-.035,3.668,3.668,0,0,0-2.543,0,.688.688,0,0,1-.875-.408.671.671,0,0,1,.408-.863,5.087,5.087,0,0,1,3.477,0A.676.676,0,0,1,7.3,5.845Z" transform="translate(8.843 2.333)" fill="#5a4bd2"/>
      <path id="Vector-3" data-name="Vector" d="M0,0H28V28H0Z" fill="none" opacity="0"/>
    </g>
  </g>
</svg>
