<svg xmlns="http://www.w3.org/2000/svg" width="59" height="59" viewBox="0 0 59 59"><g transform="translate(-364 -252)"><g transform="translate(364 252)"><path d="M0,0H59V59H0Z" fill="none" opacity="0"/><path d="M44.25,0V29.746c0,4.671-2.458,7.129-7.129,7.129H7.129C2.458,36.875,0,34.417,0,29.746V0Z" transform="translate(7.375 4.917)" fill="#5a4bd2" opacity="0.4"/><g transform="translate(3.073 3.073)"><path d="M51.01,3.688H1.844A1.857,1.857,0,0,1,0,1.844,1.857,1.857,0,0,1,1.844,0H51.01a1.857,1.857,0,0,1,1.844,1.844A1.857,1.857,0,0,1,51.01,3.688Z" fill="#5a4bd2"/></g><path d="M23.163,13.127a1.85,1.85,0,0,1-1.647,1.008,1.878,1.878,0,0,1-.811-.2l-9.022-4.5-9.022,4.5a1.878,1.878,0,0,1-.811.2A1.85,1.85,0,0,1,.2,13.127a1.819,1.819,0,0,1,.836-2.483l8.8-4.4V0h3.687V6.244l8.8,4.4A1.819,1.819,0,0,1,23.163,13.127Z" transform="translate(17.817 41.792)" fill="#5a4bd2"/><g transform="translate(16.582 17.811)"><path d="M1.856,11.074A1.865,1.865,0,0,1,.43,10.411,1.842,1.842,0,0,1,.676,7.8L8.419,1.339A3.09,3.09,0,0,1,10.9.651a3.045,3.045,0,0,1,2.114,1.475l2.581,4.3,7.2-6a1.851,1.851,0,1,1,2.36,2.852L17.417,9.747a3.09,3.09,0,0,1-2.483.688A3.045,3.045,0,0,1,12.82,8.96l-2.581-4.3-7.2,6A1.921,1.921,0,0,1,1.856,11.074Z" transform="translate(0 0)" fill="#5a4bd2"/></g></g></g></svg>