<svg id="Group_3422" data-name="Group 3422" xmlns="http://www.w3.org/2000/svg" width="634" height="447.07" viewBox="0 0 634 447.07">
  <g id="Group_1089" data-name="Group 1089" transform="translate(383.635 0)">
    <path id="Path_2" data-name="Path 2" d="M117.4,150.878a17.926,17.926,0,0,0,15.529-8.97L166.1,84.395a17.926,17.926,0,0,0,0-17.912L132.93,8.97A17.926,17.926,0,0,0,117.4,0H51.1A17.926,17.926,0,0,0,35.567,8.97L2.4,66.483a17.926,17.926,0,0,0,0,17.912l33.17,57.513a17.926,17.926,0,0,0,15.529,8.97Z" transform="translate(150.878 0) rotate(90)" fill="#7162e6" opacity="0.15"/>
    <path id="Path_1" data-name="Path 1" d="M48.923,101.579A48.938,48.938,0,0,0,70.658,8.812l-9.41,8.365,4.413,17.1A25.384,25.384,0,0,1,48.55,78.424a25.18,25.18,0,0,1-9.8-1.965l3.073,13.169-8.867,9.289A48.755,48.755,0,0,0,48.923,101.579ZM28.28,97.024h0l8.319-7.4L31.964,72.245A25.388,25.388,0,0,1,58.877,29.829L56.019,17.177l9.929-10.4A48.938,48.938,0,0,0,28.28,97.024Z" transform="translate(26.143 30.908)" fill="#fafafa"/>
  </g>
  <g id="Group_1071" data-name="Group 1071" transform="translate(28.878 41.71)">
    <path id="Path_2-2" data-name="Path 2" d="M241.446,310.293a36.867,36.867,0,0,0,31.936-18.448L341.6,173.565a36.867,36.867,0,0,0,0-36.837L273.382,18.448A36.867,36.867,0,0,0,241.446,0H105.082A36.866,36.866,0,0,0,73.146,18.448L4.931,136.728a36.867,36.867,0,0,0,0,36.837l68.216,118.28a36.866,36.866,0,0,0,31.936,18.448Z" transform="translate(310.293 0) rotate(90)" fill="#7162e6" opacity="0.15"/>
    <path id="Path_1-2" data-name="Path 1" d="M100.615,204.963a100.645,100.645,0,0,0,44.7-190.783l-19.353,17.2,9.077,35.175a52.2,52.2,0,0,1-35.19,90.786A51.785,51.785,0,0,1,79.7,153.3l6.319,27.083-18.236,19.1A100.269,100.269,0,0,0,100.615,204.963ZM58.16,195.595h0l17.11-15.209-9.534-35.751A52.214,52.214,0,0,1,121.085,57.4l-5.876-26.021L135.628,9.991a100.645,100.645,0,0,0-77.469,185.6Z" transform="translate(53.766 67.509)" fill="#fafafa"/>
  </g>
  <g id="Group_1090" data-name="Group 1090" transform="translate(540.67 342.84)">
    <path id="Path_2-3" data-name="Path 2" d="M72.622,93.33a11.089,11.089,0,0,0,9.606-5.549l20.518-35.576a11.089,11.089,0,0,0,0-11.08L82.228,5.549A11.089,11.089,0,0,0,72.622,0H31.607A11.089,11.089,0,0,0,22,5.549L1.483,41.125a11.089,11.089,0,0,0,0,11.08L22,87.781a11.089,11.089,0,0,0,9.606,5.549Z" transform="translate(93.33 0) rotate(90)" fill="#7162e6" opacity="0.15"/>
    <path id="Path_1-3" data-name="Path 1" d="M30.263,64.259A30.272,30.272,0,0,0,43.708,6.875l-5.821,5.174,2.73,10.58A15.7,15.7,0,0,1,30.032,49.935a15.576,15.576,0,0,1-6.059-1.215l1.9,8.146-5.485,5.746A30.159,30.159,0,0,0,30.263,64.259Zm-12.77-2.818h0l5.146-4.575L19.772,46.113A15.7,15.7,0,0,1,36.42,19.875l-1.767-7.826,6.142-6.434a30.272,30.272,0,0,0-23.3,55.826Z" transform="translate(16.172 17.696)" fill="#fafafa"/>
  </g>
  <g id="Group_1091" data-name="Group 1091" transform="translate(421.918 232.535)" opacity="0.15">
    <path id="Path_2-4" data-name="Path 2" d="M24.461,31.436A3.735,3.735,0,0,0,27.7,29.567l6.911-11.983a3.735,3.735,0,0,0,0-3.732L27.7,1.869A3.735,3.735,0,0,0,24.461,0H10.646A3.735,3.735,0,0,0,7.41,1.869L.5,13.852a3.735,3.735,0,0,0,0,3.732L7.41,29.567a3.735,3.735,0,0,0,3.235,1.869Z" transform="translate(31.436 0) rotate(90)" fill="#7162e6"/>
  </g>
  <path id="Path_3" data-name="Path 3" d="M15.664,20.13a2.392,2.392,0,0,0,2.072-1.2l4.425-7.673a2.392,2.392,0,0,0,0-2.39L17.735,1.2A2.392,2.392,0,0,0,15.664,0H6.817A2.392,2.392,0,0,0,4.745,1.2L.32,8.87a2.392,2.392,0,0,0,0,2.39l4.425,7.673a2.392,2.392,0,0,0,2.072,1.2Z" transform="translate(20.13 406.228) rotate(90)" fill="#7162e6" opacity="0.15"/>
  <path id="Path_4" data-name="Path 4" d="M11.96,15.37a1.826,1.826,0,0,0,1.582-.914L16.921,8.6a1.826,1.826,0,0,0,0-1.825L13.542.914A1.826,1.826,0,0,0,11.96,0H5.205A1.826,1.826,0,0,0,3.623.914L.244,6.773a1.826,1.826,0,0,0,0,1.825l3.379,5.859a1.826,1.826,0,0,0,1.582.914Z" transform="translate(280.959 5.468) rotate(90)" fill="#7162e6" opacity="0.15"/>
</svg>
