<svg xmlns="http://www.w3.org/2000/svg" width="38.37" height="47.149" viewBox="0 0 38.37 47.149"><path d="M83.243,49.949a10.713,10.713,0,0,1,5.1-8.989A10.977,10.977,0,0,0,79.7,36.287c-3.636-.383-7.163,2.175-9.016,2.175-1.889,0-4.742-2.138-7.816-2.075a11.509,11.509,0,0,0-9.687,5.907C49,49.544,52.12,60.2,56.133,66.059c2.008,2.872,4.354,6.075,7.424,5.962,3-.122,4.126-1.913,7.751-1.913,3.592,0,4.646,1.913,7.777,1.841,3.224-.05,5.254-2.883,7.191-5.779a23.688,23.688,0,0,0,3.289-6.7,10.365,10.365,0,0,1-6.322-9.525ZM77.328,32.432a10.543,10.543,0,0,0,2.414-7.557,10.746,10.746,0,0,0-6.947,3.593,10.034,10.034,0,0,0-2.477,7.278A8.876,8.876,0,0,0,77.328,32.432Z" transform="translate(-51.195 -24.875)" fill="#5a4bd2"/></svg>