<svg xmlns="http://www.w3.org/2000/svg" width="55.667" height="36.016" viewBox="0 0 55.667 36.016"><path d="M84.411,114.679a3.274,3.274,0,0,1-3.274-3.274V95.034a3.274,3.274,0,0,1,6.548,0V111.4A3.275,3.275,0,0,1,84.411,114.679Zm-11.459,3.274H64.764a3.274,3.274,0,0,1,0-6.548h6.55v-9.824a3.274,3.274,0,0,1,6.548,0v11.462A4.914,4.914,0,0,1,72.952,117.953Z" transform="translate(-61.49 -91.76)" fill="#6028de"/><path d="M165.174,136.591H157a3.274,3.274,0,0,1,0-6.548h6.55V120.22a3.274,3.274,0,1,1,6.548,0v11.444A4.931,4.931,0,0,1,165.174,136.591Zm21.3-6.55h-8.143a4.959,4.959,0,0,1-4.954-4.954V110.394a3.274,3.274,0,0,1,6.548,0v13.1h6.55a3.275,3.275,0,1,1,0,6.55Z" transform="translate(-134.083 -103.848)" fill="#6028de"/><circle cx="3.274" cy="3.274" r="3.274" transform="translate(29.471 3.272)" fill="#6028de"/><circle cx="3.274" cy="3.274" r="3.274" transform="translate(39.294 29.469)" fill="#6028de"/></svg>