<svg xmlns="http://www.w3.org/2000/svg" xmlns:xlink="http://www.w3.org/1999/xlink" viewBox="0 0 20 19.765"><defs><filter id="Path_881"><feOffset dy="3" input="SourceAlpha"></feOffset> <feGaussianBlur stdDeviation="3" result="blur"></feGaussianBlur> <feFlood flood-opacity="0.161" result="color"></feFlood> <feComposite operator="out" in="SourceGraphic" in2="blur"></feComposite> <feComposite operator="in" in="color"></feComposite> <feComposite operator="in" in2="SourceGraphic"></feComposite></filter></defs> <g data-type="innerShadowGroup"><path id="Path_881-2" data-name="Path 881" d="M10.909,4.841a2.07,2.07,0,0,1,3.859,0l1.157,2.977a2.07,2.07,0,0,0,1.769,1.314l3.231.251a2.07,2.07,0,0,1,1.215,3.611L19.516,15.33a2.07,2.07,0,0,0-.64,2.017l.791,3.392a2.07,2.07,0,0,1-3.146,2.2l-2.552-1.662a2.07,2.07,0,0,0-2.259,0L9.157,22.943a2.07,2.07,0,0,1-3.146-2.2L6.8,17.347a2.07,2.07,0,0,0-.64-2.017L3.536,12.994A2.07,2.07,0,0,1,4.752,9.384l3.231-.251A2.07,2.07,0,0,0,9.752,7.818Z" transform="translate(-2.839 -3.521)"></path> <g transform="matrix(1, 0, 0, 1, 0, 0)" filter="url(#Path_881)"><path id="Path_881-3" data-name="Path 881" d="M10.909,4.841a2.07,2.07,0,0,1,3.859,0l1.157,2.977a2.07,2.07,0,0,0,1.769,1.314l3.231.251a2.07,2.07,0,0,1,1.215,3.611L19.516,15.33a2.07,2.07,0,0,0-.64,2.017l.791,3.392a2.07,2.07,0,0,1-3.146,2.2l-2.552-1.662a2.07,2.07,0,0,0-2.259,0L9.157,22.943a2.07,2.07,0,0,1-3.146-2.2L6.8,17.347a2.07,2.07,0,0,0-.64-2.017L3.536,12.994A2.07,2.07,0,0,1,4.752,9.384l3.231-.251A2.07,2.07,0,0,0,9.752,7.818Z" transform="translate(-2.84 -3.52)"></path></g></g></svg>