<svg xmlns="http://www.w3.org/2000/svg" width="24" height="24" viewBox="0 0 24 24">
    <g id="vuesax_bulk_star" data-name="vuesax/bulk/star" transform="translate(-108 -188)">
        <g id="star">
            <path id="Vector" d="M3.78,14a1.869,1.869,0,0,0-.44-1.54L.91,10.03A2.314,2.314,0,0,1,.07,7.76a2.315,2.315,0,0,1,2-1.36l3.12-.52A1.92,1.92,0,0,0,6.4,4.99L8.12,1.54C8.62.55,9.3,0,10.04,0s1.42.55,1.92,1.54l1.72,3.45a1.8,1.8,0,0,0,.69.68L3.6,16.44a.2.2,0,0,1-.34-.19Z" transform="translate(109.96 190)" fill="#474646" opacity="0.4"/>
            <path id="Vector-2" data-name="Vector" d="M13.65,6.259a1.813,1.813,0,0,0-.44,1.54l.69,3.01c.29,1.25.11,2.19-.51,2.64a1.5,1.5,0,0,1-.9.27,3.592,3.592,0,0,1-1.77-.58L7.79,11.4a1.843,1.843,0,0,0-1.68,0l-2.93,1.74c-1.11.65-2.06.76-2.67.31a1.472,1.472,0,0,1-.51-.7L12.16.589A1.984,1.984,0,0,1,13.9.029L14.91.2a2.315,2.315,0,0,1,2,1.36,2.314,2.314,0,0,1-.84,2.27Z" transform="translate(113.05 196.201)" fill="#5a4bd2"/>
            <path id="Vector-3" data-name="Vector" d="M0,0H24V24H0Z" transform="translate(108 188)" fill="none" opacity="0"/>
        </g>
    </g>
</svg>
