<svg xmlns="http://www.w3.org/2000/svg" width="31.575" height="31.575" viewBox="0 0 31.575 31.575"><g transform="translate(-3.11 -3.157)"><path d="M31.575,15.787A15.787,15.787,0,1,1,15.787,0,15.787,15.787,0,0,1,31.575,15.787Z" transform="translate(3.11 3.157)" fill="#5a4bd2" opacity="0.4"/><path d="M10.041,3.134,5.462.5A3.592,3.592,0,0,0,1.816.5,3.607,3.607,0,0,0,0,3.655V8.944A3.638,3.638,0,0,0,3.631,12.59,3.565,3.565,0,0,0,5.447,12.1l4.578-2.636a3.607,3.607,0,0,0,1.816-3.157A3.523,3.523,0,0,0,10.041,3.134Z" transform="translate(13.593 13.017)" fill="#5a4bd2"/></g></svg>