<svg xmlns="http://www.w3.org/2000/svg" width="26.393" height="26.393" viewBox="0 0 26.393 26.393"><g transform="translate(0)"><path d="M0,0H26.393V26.393H0Z" transform="translate(0)" fill="none"/><path d="M12.884,1.95a10.884,10.884,0,0,0,0,21.768h5.442V21.541H12.884a8.819,8.819,0,0,1-8.707-8.707,8.819,8.819,0,0,1,8.707-8.707,8.819,8.819,0,0,1,8.707,8.707V14.39A1.759,1.759,0,0,1,19.958,16.1a1.759,1.759,0,0,1-1.633-1.709V12.834a5.444,5.444,0,1,0-1.589,3.842,4.03,4.03,0,0,0,3.222,1.6,3.824,3.824,0,0,0,3.809-3.886V12.834A10.888,10.888,0,0,0,12.884,1.95Zm0,14.149a3.265,3.265,0,1,1,3.265-3.265A3.261,3.261,0,0,1,12.884,16.1Z" transform="translate(0.313 0.305)"/></g></svg>