<svg xmlns="http://www.w3.org/2000/svg" width="21.779" height="21.779" viewBox="0 0 21.779 21.779"><path d="M18.7,5.768h0a1.307,1.307,0,1,0,1.307,1.307A1.307,1.307,0,0,0,18.7,5.768ZM23.714,8.4a8.265,8.265,0,0,0-.5-2.646,5.38,5.38,0,0,0-1.263-1.927,5.118,5.118,0,0,0-1.927-1.252,7.949,7.949,0,0,0-2.646-.512C16.222,2,15.851,2,12.889,2S9.557,2,8.4,2.065a7.949,7.949,0,0,0-2.646.512A5.205,5.205,0,0,0,3.829,3.829,5.118,5.118,0,0,0,2.577,5.757,7.95,7.95,0,0,0,2.065,8.4C2,9.557,2,9.928,2,12.89s0,3.332.065,4.487a7.95,7.95,0,0,0,.512,2.646A5.118,5.118,0,0,0,3.829,21.95,5.205,5.205,0,0,0,5.757,23.2a7.949,7.949,0,0,0,2.646.512c1.154.065,1.525.065,4.486.065s3.332,0,4.486-.065a7.949,7.949,0,0,0,2.646-.512,5.118,5.118,0,0,0,1.927-1.252,5.282,5.282,0,0,0,1.263-1.927,8.265,8.265,0,0,0,.5-2.646c0-1.154.065-1.525.065-4.487S23.779,9.557,23.714,8.4Zm-1.96,8.842a6.109,6.109,0,0,1-.37,2.025,3.332,3.332,0,0,1-.817,1.252,3.474,3.474,0,0,1-1.252.817,6.109,6.109,0,0,1-2.025.37c-1.089.054-1.492.065-4.356.065s-3.267,0-4.356-.065a6.24,6.24,0,0,1-2.113-.327,3.561,3.561,0,0,1-1.2-.817,3.267,3.267,0,0,1-.806-1.252,6.033,6.033,0,0,1-.436-2.069c0-1.089-.065-1.492-.065-4.356s0-3.267.065-4.356a6.033,6.033,0,0,1,.381-2.069,3.267,3.267,0,0,1,.86-1.2,3.419,3.419,0,0,1,1.2-.871,6.24,6.24,0,0,1,2.069-.37c1.089,0,1.492-.065,4.356-.065s3.267,0,4.356.065a6.109,6.109,0,0,1,2.025.37,3.332,3.332,0,0,1,1.3.871,3.332,3.332,0,0,1,.817,1.2,6.109,6.109,0,0,1,.37,2.069c.054,1.089.065,1.492.065,4.356S21.808,16.157,21.753,17.246ZM12.889,7.3a5.575,5.575,0,1,0,3.96,1.629A5.586,5.586,0,0,0,12.889,7.3Zm0,9.213a3.626,3.626,0,1,1,3.626-3.626,3.626,3.626,0,0,1-3.626,3.626Z" transform="translate(-2 -2)" fill="#fff"/></svg>