<svg xmlns="http://www.w3.org/2000/svg" width="26.393" height="26.393" viewBox="0 0 26.393 26.393"><g transform="translate(0)"><path d="M0,0H26.393V26.393H0Z" transform="translate(0)" fill="none"/><path d="M12.571,12.884a2.177,2.177,0,1,1,2.143-2.177A2.166,2.166,0,0,1,12.571,12.884ZM19,10.925a6.436,6.436,0,1,0-12.857,0c0,2.547,2.089,5.921,6.428,9.948C16.91,16.846,19,13.472,19,10.925ZM12.571,2a8.592,8.592,0,0,1,8.571,8.925q0,5.42-8.571,12.843Q4.005,16.34,4,10.925A8.592,8.592,0,0,1,12.571,2Z" transform="translate(0.625 0.313)"/></g></svg>