<svg xmlns="http://www.w3.org/2000/svg" width="26.393" height="26.393" viewBox="0 0 26.393 26.393"><path d="M26.393,0H0V26.393H26.393Z" fill="none"/><path d="M9.485,12.728H7.323a5.406,5.406,0,0,1,5.4-5.4V9.485A3.238,3.238,0,0,0,9.485,12.728Zm-4.323,0H3A9.728,9.728,0,0,1,12.728,3V5.162A7.56,7.56,0,0,0,5.162,12.728ZM4.081,16.51a12.279,12.279,0,0,0,3.859-.616,1.205,1.205,0,0,1,.335-.054,1.107,1.107,0,0,1,.767.313l2.378,2.378a16.262,16.262,0,0,0,7.123-7.123L16.165,9.02a1.038,1.038,0,0,1-.27-1.081,12.279,12.279,0,0,0,.616-3.859A1.084,1.084,0,0,1,17.591,3h3.783a1.084,1.084,0,0,1,1.081,1.081A18.373,18.373,0,0,1,4.081,22.455,1.084,1.084,0,0,1,3,21.374V17.591A1.084,1.084,0,0,1,4.081,16.51ZM20.261,5.162H18.64a14.9,14.9,0,0,1-.486,2.789l1.3,1.308A16.588,16.588,0,0,0,20.261,5.162Zm-15.1,15.1a16.106,16.106,0,0,0,4.107-.821l-1.3-1.3a13.784,13.784,0,0,1-2.81.486Z" transform="translate(0.469 0.469)"/></svg>