<svg xmlns="http://www.w3.org/2000/svg" width="19.683" height="17.978" viewBox="0 0 19.683 17.978"><path d="M20.025,2.378a1.833,1.833,0,0,0-1.859-.29L2.132,8.561a1.828,1.828,0,0,0,.093,3.416l3.243,1.128,1.808,5.978a.893.893,0,0,0,.106.226c.007.011.017.019.024.029a.884.884,0,0,0,.189.193c.021.016.04.03.062.044a.882.882,0,0,0,.278.122h.011l.006,0a.914.914,0,0,0,.181.018c.006,0,.011,0,.017,0a.888.888,0,0,0,.269-.047c.02-.007.038-.018.057-.027a.888.888,0,0,0,.183-.1l.136-.115,2.418-2.669L14.82,19.55a1.81,1.81,0,0,0,1.11.382,1.838,1.838,0,0,0,1.8-1.461l2.919-14.33a1.816,1.816,0,0,0-.62-1.763ZM8.489,13.39a.889.889,0,0,0-.244.453l-.277,1.346-.7-2.32L10.9,10.975Zm7.428,4.745-4.261-3.3a.9.9,0,0,0-1.211.107L9.67,15.8l.274-1.33L16.28,8.129A.894.894,0,0,0,15.235,6.7L6.14,11.438,2.808,10.219,18.893,3.784Z" transform="translate(-1 -1.954)" fill="#fff"/></svg>