<svg xmlns="http://www.w3.org/2000/svg" width="90.341" height="90.341" viewBox="0 0 90.341 90.341"><g id="vuesax_bulk_graph" data-name="vuesax/bulk/graph" transform="translate(-300 -188)"><g id="graph" transform="translate(300 188)"><g id="graph-2" data-name="graph" transform="translate(7.538 7.531)"><path id="Vector" d="M34.857,18.631A26.282,26.282,0,0,0,17.466,1.24C11.255-.567,6.964-.416,3.99,1.8.414,4.477,0,9.3,0,12.721v9.373c0,9.26,4.216,13.965,12.5,13.965H23.3c3.388,0,8.244-.414,10.916-3.99C36.513,29.133,36.7,24.842,34.857,18.631Z" transform="translate(39.176)" fill="#5a4bd2"></path> <path id="Vector-2" data-name="Vector" d="M63.643,32.414a5.151,5.151,0,0,0-3.877-1.769H46.29A12.016,12.016,0,0,1,34.282,18.637V5.161a5.151,5.151,0,0,0-1.769-3.877A5.1,5.1,0,0,0,28.485.042,32.873,32.873,0,0,0,6.2,13.33a32.5,32.5,0,0,0,20.176,51,31.57,31.57,0,0,0,6.211.6A31.99,31.99,0,0,0,51.6,58.726,32.873,32.873,0,0,0,64.885,36.442,5.06,5.06,0,0,0,63.643,32.414Z" transform="translate(0 10.345)" fill="#5a4bd2" opacity="0.4"></path></g> <path id="Vector-3" data-name="Vector" d="M0,0H90.341V90.341H0Z" fill="none" opacity="0"></path></g></g></svg>