<svg id="user-octagon" xmlns="http://www.w3.org/2000/svg" width="90.341" height="90.341" viewBox="0 0 90.341 90.341"><path id="Vector" d="M0,0H90.341V90.341H0Z" fill="none" opacity="0"></path> <path id="Vector-2" data-name="Vector" d="M68.4,24.769V50.516a11.947,11.947,0,0,1-5.91,10.276L40.126,73.7a11.907,11.907,0,0,1-11.857,0L5.91,60.792A11.855,11.855,0,0,1,0,50.516V24.769A11.947,11.947,0,0,1,5.91,14.492L28.269,1.581a11.907,11.907,0,0,1,11.857,0L62.486,14.492A11.9,11.9,0,0,1,68.4,24.769Z" transform="translate(10.954 7.528)" fill="#5a4bd2" opacity="0.4"></path> <g id="Group" transform="translate(31.3 27.629)"><path id="Vector-3" data-name="Vector" d="M17.541,8.77A8.771,8.771,0,1,1,8.771,0,8.771,8.771,0,0,1,17.541,8.77Z" transform="translate(5.099)" fill="#5a4bd2"></path> <path id="Vector-4" data-name="Vector" d="M23.958,12.271a3.78,3.78,0,0,0,3.124-5.91C24.523,2.56,19.554,0,13.87,0S3.217,2.56.658,6.362a3.78,3.78,0,0,0,3.124,5.91Z" transform="translate(0 22.811)" fill="#5a4bd2"></path></g></svg>