<svg xmlns="http://www.w3.org/2000/svg" width="90.341" height="90.341" viewBox="0 0 90.341 90.341">
    <g id="vuesax_bulk_lock" data-name="vuesax/bulk/lock" transform="translate(0)">
        <g id="lock" transform="translate(0 0)">
            <path id="Vector" d="M0,0H90.341V90.341H0Z" fill="none" opacity="0"/>
            <path id="Vector-2" data-name="Vector" d="M50.817,25.408v7.9a48.875,48.875,0,0,0-5.646-.376V25.408c0-11.857-3.35-19.762-19.762-19.762S5.646,13.551,5.646,25.408v7.528A48.875,48.875,0,0,0,0,33.313v-7.9C0,14.492,2.635,0,25.408,0S50.817,14.492,50.817,25.408Z" transform="translate(19.762 4.705)" fill="#5a4bd2"/>
            <path id="Vector-3" data-name="Vector" d="M75.284,18.821v7.528c0,15.057-3.764,18.821-18.821,18.821H18.821C3.764,45.17,0,41.406,0,26.349V18.821C0,6.249,2.635,1.543,12.234.376A48.875,48.875,0,0,1,17.88,0H57.4A48.876,48.876,0,0,1,63.05.376C72.649,1.543,75.284,6.249,75.284,18.821Z" transform="translate(7.528 37.642)" fill="#5a4bd2" opacity="0.4"/>
            <g id="Group" transform="translate(26.349 56.467)">
                <path id="Vector-4" data-name="Vector" d="M3.764,7.524a3.747,3.747,0,0,1-1.43-.3,3.885,3.885,0,0,1-1.242-.79A3.958,3.958,0,0,1,0,3.76,3.747,3.747,0,0,1,.3,2.33a4.347,4.347,0,0,1,.791-1.242A3.885,3.885,0,0,1,2.334.3a3.76,3.76,0,0,1,4.1.79A4.347,4.347,0,0,1,7.227,2.33a3.747,3.747,0,0,1,.3,1.43A3.958,3.958,0,0,1,6.437,6.433,3.958,3.958,0,0,1,3.764,7.524Z" transform="translate(0 0)" fill="#5a4bd2"/>
            </g>
            <g id="Group-2" data-name="Group" transform="translate(41.406 56.51)">
                <path id="Vector-5" data-name="Vector" d="M3.764,7.481A3.887,3.887,0,0,1,1.092,6.39,4.347,4.347,0,0,1,.3,5.148,3.747,3.747,0,0,1,0,3.717,3.887,3.887,0,0,1,1.092,1.045a3.941,3.941,0,0,1,5.345,0A3.887,3.887,0,0,1,7.528,3.717a3.747,3.747,0,0,1-.3,1.43A4.347,4.347,0,0,1,6.437,6.39,3.958,3.958,0,0,1,3.764,7.481Z" transform="translate(0 0)" fill="#5a4bd2"/>
            </g>
            <g id="Group-3" data-name="Group" transform="translate(56.463 56.51)">
                <path id="Vector-6" data-name="Vector" d="M3.764,7.481A3.958,3.958,0,0,1,1.092,6.39,3.887,3.887,0,0,1,0,3.717,3.887,3.887,0,0,1,1.092,1.045a3.941,3.941,0,0,1,5.345,0c.151.188.3.376.452.6a2.093,2.093,0,0,1,.339.64,2.393,2.393,0,0,1,.226.678,5.657,5.657,0,0,1,.075.753A3.958,3.958,0,0,1,6.437,6.39,3.958,3.958,0,0,1,3.764,7.481Z" transform="translate(0)" fill="#5a4bd2"/>
            </g>
        </g>
    </g>
</svg>
